<?xml version="1.0" encoding="UTF-8" standalone="no"?>
<!DOCTYPE svg PUBLIC "-//W3C//DTD SVG 1.1//EN"
 "http://www.w3.org/Graphics/SVG/1.1/DTD/svg11.dtd">
<!-- Generated by graphviz version 14.1.0 (20251206.1807)
 -->
<!-- Pages: 1 -->
<svg width="430pt" height="260pt"
 viewBox="0.00 0.00 430.00 260.00" xmlns="http://www.w3.org/2000/svg" xmlns:xlink="http://www.w3.org/1999/xlink">
<g id="graph0" class="graph" transform="scale(1 1) rotate(0) translate(4 256)">
<polygon fill="white" stroke="none" points="-4,4 -4,-256 425.75,-256 425.75,4 -4,4"/>
<!-- 3974066331930296786 -->
<g id="node1" class="node">
<title>3974066331930296786</title>
<polygon fill="none" stroke="black" points="302.12,-252 119.62,-252 119.62,-216 302.12,-216 302.12,-252"/>
<text xml:space="preserve" text-anchor="middle" x="210.88" y="-226.62" font-family="Helvetica,sans-Serif" font-size="20.00">Unique(Projection)</text>
</g>
<!-- &#45;1169959105076309814 -->
<g id="node2" class="node">
<title>&#45;1169959105076309814</title>
<polygon fill="none" stroke="black" points="413.5,-180 8.25,-180 8.25,-144 413.5,-144 413.5,-180"/>
<text xml:space="preserve" text-anchor="middle" x="210.88" y="-154.62" font-family="Helvetica,sans-Serif" font-size="20.00">Projection(ArrowStringConversion, track_id)</text>
</g>
<!-- &#45;1169959105076309814&#45;&gt;3974066331930296786 -->
<g id="edge1" class="edge">
<title>&#45;1169959105076309814&#45;&gt;3974066331930296786</title>
<path fill="none" stroke="black" d="M210.88,-180.3C210.88,-187.59 210.88,-196.27 210.88,-204.46"/>
<polygon fill="black" stroke="black" points="207.38,-204.38 210.88,-214.38 214.38,-204.38 207.38,-204.38"/>
</g>
<!-- 7342247387813951276 -->
<g id="node3" class="node">
<title>7342247387813951276</title>
<polygon fill="none" stroke="black" points="421.75,-108 0,-108 0,-72 421.75,-72 421.75,-108"/>
<text xml:space="preserve" text-anchor="middle" x="210.88" y="-82.62" font-family="Helvetica,sans-Serif" font-size="20.00">ArrowStringConversion(FromMapProjectable)</text>
</g>
<!-- 7342247387813951276&#45;&gt;&#45;1169959105076309814 -->
<g id="edge2" class="edge">
<title>7342247387813951276&#45;&gt;&#45;1169959105076309814</title>
<path fill="none" stroke="black" d="M210.88,-108.3C210.88,-115.59 210.88,-124.27 210.88,-132.46"/>
<polygon fill="black" stroke="black" points="207.38,-132.38 210.88,-142.38 214.38,-132.38 207.38,-132.38"/>
</g>
<!-- &#45;5799983954638002357 -->
<g id="node4" class="node">
<title>&#45;5799983954638002357</title>
<polygon fill="none" stroke="black" points="311.88,-36 109.88,-36 109.88,0 311.88,0 311.88,-36"/>
<text xml:space="preserve" text-anchor="middle" x="210.88" y="-10.62" font-family="Helvetica,sans-Serif" font-size="20.00">FromMapProjectable</text>
</g>
<!-- &#45;5799983954638002357&#45;&gt;7342247387813951276 -->
<g id="edge3" class="edge">
<title>&#45;5799983954638002357&#45;&gt;7342247387813951276</title>
<path fill="none" stroke="black" d="M210.88,-36.3C210.88,-43.59 210.88,-52.27 210.88,-60.46"/>
<polygon fill="black" stroke="black" points="207.38,-60.38 210.88,-70.38 214.38,-60.38 207.38,-60.38"/>
</g>
</g>
</svg>
